<?xml version="1.0" encoding="utf-8"?>
<svg height="192" version="1.1" width="192" xmlns="http://www.w3.org/2000/svg">
 <path d="M0 0 C0.96564377 -0.0071553 1.93128754 -0.01431061 2.92619324 -0.02168274 C4.50572784 -0.02571609 4.50572784 -0.02571609 6.11717224 -0.02983093 C7.78866585 -0.03968773 7.78866585 -0.03968773 9.493927 -0.04974365 C13.18531869 -0.06946862 16.87666966 -0.08113895 20.56809998 -0.09111023 C21.83047926 -0.09518576 23.09285854 -0.09926128 24.39349174 -0.10346031 C30.38906889 -0.12216981 36.38462146 -0.13673432 42.38022 -0.14507228 C49.27788701 -0.15482536 56.17523147 -0.18109689 63.07278496 -0.22157317 C69.06460233 -0.25551468 75.05626468 -0.2672291 81.04818535 -0.27127647 C83.58737814 -0.2761355 86.12656767 -0.28772983 88.6656971 -0.30631447 C92.22920698 -0.33077086 95.79188465 -0.3297282 99.35545349 -0.32279968 C100.39430695 -0.33560974 101.4331604 -0.3484198 102.50349426 -0.36161804 C115.27025355 -0.27165294 126.80355042 5.10534439 136.31419373 13.52217102 C143.39381575 20.93342504 149.2838037 32.65788927 149.33636475 42.95797729 C149.3470977 44.40644295 149.3470977 44.40644295 149.35804749 45.88417053 C149.36073639 46.9371936 149.36342529 47.99021667 149.36619568 49.07514954 C149.37276688 50.18947861 149.37933807 51.30380768 149.3861084 52.4519043 C149.40583337 56.14329598 149.4175037 59.83464696 149.42747498 63.52607727 C149.4315505 64.78845655 149.43562603 66.05083584 149.43982506 67.35146904 C149.45853456 73.34704618 149.47309907 79.34259875 149.48143703 85.33819729 C149.4911901 92.2358643 149.51746164 99.13320876 149.55793792 106.03076226 C149.59187942 112.02257963 149.60359384 118.01424198 149.60764122 124.00616264 C149.61250025 126.54535544 149.62409458 129.08454496 149.64267921 131.62367439 C149.6671356 135.18718427 149.66609295 138.74986194 149.65916443 142.31343079 C149.67837952 143.87171097 149.67837952 143.87171097 149.69798279 145.46147156 C149.60801768 158.22823084 144.23102035 169.76152772 135.81419373 179.27217102 C128.40293971 186.35179305 116.67847548 192.24178099 106.37838745 192.29434204 C104.9299218 192.305075 104.9299218 192.305075 103.45219421 192.31602478 C102.39917114 192.31871368 101.34614807 192.32140259 100.26121521 192.32417297 C99.14688614 192.33074417 98.03255707 192.33731537 96.88446045 192.34408569 C93.19306876 192.36381066 89.50171779 192.37548099 85.81028748 192.38545227 C84.54790819 192.3895278 83.28552891 192.39360332 81.98489571 192.39780235 C75.98931856 192.41651185 69.99376599 192.43107636 63.99816746 192.43941432 C57.10050044 192.4491674 50.20315598 192.47543893 43.30560249 192.51591522 C37.31378512 192.54985672 31.32212277 192.56157114 25.3302021 192.56561852 C22.79100931 192.57047755 20.25181978 192.58207187 17.71269035 192.60065651 C14.14918047 192.6251129 10.5865028 192.62407024 7.02293396 192.61714172 C5.46465378 192.63635681 5.46465378 192.63635681 3.87489319 192.65596008 C-8.89186609 192.56599498 -20.42516297 187.18899765 -29.93580627 178.77217102 C-37.0154283 171.360917 -42.90541625 159.63645277 -42.95797729 149.33636475 C-42.9651326 148.37072098 -42.9722879 147.40507721 -42.97966003 146.41017151 C-42.98234894 145.35714844 -42.98503784 144.30412537 -42.98780823 143.2191925 C-42.99437943 142.10486343 -43.00095062 140.99053436 -43.00772095 139.84243774 C-43.02744592 136.15104606 -43.03911625 132.45969509 -43.04908752 128.76826477 C-43.05316305 127.50588549 -43.05723858 126.2435062 -43.06143761 124.942873 C-43.08014711 118.94729586 -43.09471162 112.95174329 -43.10304958 106.95614475 C-43.11280265 100.05847774 -43.13907419 93.16113328 -43.17955047 86.26357979 C-43.21349197 80.27176241 -43.22520639 74.28010007 -43.22925377 68.2881794 C-43.2341128 65.7489866 -43.24570713 63.20979708 -43.26429176 60.67066765 C-43.28874815 57.10715777 -43.2877055 53.5444801 -43.28077698 49.98091125 C-43.29358704 48.9420578 -43.30639709 47.90320435 -43.31959534 46.83287048 C-43.22963023 34.0661112 -37.8526329 22.53281432 -29.43580627 13.02217102 C-22.02455226 5.94254899 -10.30008802 0.05256105 0 0 Z " fill="black" transform="translate(42.81080627441406,-0.1471710205078125)"/>
 <path d="M0 0 C1.04697556 -0.00004028 2.09395111 -0.00008057 3.1726532 -0.00012207 C5.37208096 0.00521363 7.57150951 0.02271213 9.77075195 0.05175781 C13.14397992 0.09384059 16.51522402 0.09280257 19.88867188 0.0859375 C22.02996183 0.09642289 24.17124151 0.10935746 26.3125 0.125 C27.32186111 0.12520142 28.33122223 0.12540283 29.37117004 0.12561035 C30.30611801 0.14152222 31.24106598 0.15743408 32.2043457 0.17382812 C33.43723076 0.18645691 33.43723076 0.18645691 34.69502258 0.19934082 C37.33872114 0.68905567 38.23053089 1.45624142 39.82421875 3.59375 C40.26171875 6.59375 40.26171875 6.59375 39.82421875 9.59375 C37.00892266 12.288118 35.01377789 12.97158691 31.16333008 13.01025391 C29.78719292 13.03510361 29.78719292 13.03510361 28.383255 13.06045532 C26.90963753 13.06533463 26.90963753 13.06533463 25.40625 13.0703125 C24.3932634 13.08589203 23.38027679 13.10147156 22.33659363 13.11752319 C19.1033096 13.16504147 15.8702419 13.19281457 12.63671875 13.21875 C9.39263525 13.25519229 6.1486757 13.29574463 2.90470886 13.34140015 C0.88599386 13.36871176 -1.13281243 13.39002577 -3.1516571 13.40493774 C-4.0596254 13.41519989 -4.96759369 13.42546204 -5.90307617 13.43603516 C-6.7059758 13.44253082 -7.50887543 13.44902649 -8.33610535 13.45571899 C-10.19340557 13.3939679 -10.19340557 13.3939679 -11.17578125 14.59375 C-11.4077099 16.10844448 -11.58793363 17.63129562 -11.73828125 19.15625 C-11.82207031 19.98253906 -11.90585937 20.80882813 -11.9921875 21.66015625 C-12.08306641 22.61728516 -12.08306641 22.61728516 -12.17578125 23.59375 C-10.91765625 23.531875 -9.65953125 23.47 -8.36328125 23.40625 C-5.73495944 23.42023044 -4.44684941 23.44589464 -2.11328125 24.71875 C-0.66261393 27.62008464 -1.27126431 29.55715742 -2.17578125 32.59375 C-5.81995865 35.0232016 -7.88819397 34.75554575 -12.17578125 34.59375 C-12.17578125 38.22375 -12.17578125 41.85375 -12.17578125 45.59375 C-10.56703125 45.5009375 -10.56703125 45.5009375 -8.92578125 45.40625 C-5.06711938 45.59918309 -3.88760337 45.99040076 -1.17578125 48.59375 C-1.43139448 50.9368713 -1.76848897 53.27218403 -2.17578125 55.59375 C-5.39029394 57.20100635 -8.61190661 56.65123185 -12.17578125 56.59375 C-12.17578125 60.55375 -12.17578125 64.51375 -12.17578125 68.59375 C-10.91765625 68.531875 -9.65953125 68.47 -8.36328125 68.40625 C-5.73495944 68.42023044 -4.44684941 68.44589464 -2.11328125 69.71875 C-0.66261393 72.62008464 -1.27126431 74.55715742 -2.17578125 77.59375 C-5.81995865 80.0232016 -7.88819397 79.75554575 -12.17578125 79.59375 C-12.17578125 83.22375 -12.17578125 86.85375 -12.17578125 90.59375 C-10.56703125 90.5009375 -10.56703125 90.5009375 -8.92578125 90.40625 C-5.17578125 90.59375 -5.17578125 90.59375 -2.73828125 91.78125 C-1.17578125 93.59375 -1.17578125 93.59375 -0.73828125 96.09375 C-1.17578125 98.59375 -1.17578125 98.59375 -2.17578125 100.40625 C-5.41567087 102.32993446 -8.45836315 101.77657384 -12.17578125 101.59375 C-11.51578125 104.89375 -10.85578125 108.19375 -10.17578125 111.59375 C14.24421875 111.59375 38.66421875 111.59375 63.82421875 111.59375 C64.99990941 109.24236868 64.96074592 107.81315673 64.98193359 105.19165039 C64.99732681 103.82496971 64.99732681 103.82496971 65.01303101 102.43067932 C65.02033234 101.44421921 65.02763367 100.45775909 65.03515625 99.44140625 C65.06321874 97.36522641 65.09188316 95.28905463 65.12109375 93.21289062 C65.1624187 89.92977063 65.19929441 86.6468022 65.22558594 83.36352539 C65.25311957 80.20166714 65.29898561 77.04050016 65.34765625 73.87890625 C65.35090912 72.89447037 65.35416199 71.91003448 65.35751343 70.89576721 C65.3740799 69.9814946 65.39064636 69.06722198 65.40771484 68.12524414 C65.4158017 67.32075333 65.42388855 66.51626251 65.43222046 65.68739319 C65.92511195 63.05488451 66.64761645 62.13117581 68.82421875 60.59375 C75.26866319 61.03819444 75.26866319 61.03819444 76.82421875 62.59375 C76.93827186 64.12669715 76.98378676 65.66481902 77.0012207 67.2019043 C77.02047356 68.67429817 77.02047356 68.67429817 77.04011536 70.17643738 C77.04750229 71.24614273 77.05488922 72.31584808 77.0625 73.41796875 C77.07057175 74.51212601 77.07864349 75.60628326 77.08695984 76.7335968 C77.10082248 79.05634975 77.11153483 81.37912325 77.11938477 83.7019043 C77.13656224 87.24893133 77.18042583 90.79501811 77.22460938 94.34179688 C77.23473888 96.5963473 77.24325417 98.85090566 77.25 101.10546875 C77.26750809 102.16505295 77.28501617 103.22463715 77.30305481 104.31632996 C77.28516409 110.41546341 76.90631447 113.95859314 72.82421875 118.59375 C67.65915229 123.12893031 64.55669365 124.84431879 57.6340332 124.90014648 C56.9051741 124.90847 56.176315 124.91679352 55.42536926 124.92536926 C53.01269193 124.94948716 50.60028516 124.95824529 48.1875 124.96484375 C46.50701314 124.97381177 44.8265271 124.98293365 43.14604187 124.99220276 C39.61955832 125.00870228 36.09316978 125.01639408 32.56665039 125.01928711 C28.0618289 125.0246588 23.55790932 125.06228357 19.05334187 125.10803127 C15.57961326 125.13787805 12.1060993 125.14501238 8.63225365 125.14601326 C6.97254512 125.15020381 5.31283527 125.16259117 3.65325356 125.18353081 C-11.99912993 125.36522917 -11.99912993 125.36522917 -17.78987122 120.97303772 C-22.2481179 116.53609394 -23.39341953 112.95869452 -23.42578125 106.65625 C-23.36215538 104.96789209 -23.28553813 103.27973758 -23.17578125 101.59375 C-24.09810547 101.64595703 -24.09810547 101.64595703 -25.0390625 101.69921875 C-25.84730469 101.72628906 -26.65554687 101.75335938 -27.48828125 101.78125 C-28.68904297 101.83345703 -28.68904297 101.83345703 -29.9140625 101.88671875 C-32.17578125 101.59375 -32.17578125 101.59375 -33.9765625 100.2734375 C-35.17578125 98.59375 -35.17578125 98.59375 -35.05078125 95.53125 C-34.17578125 92.59375 -34.17578125 92.59375 -31.17578125 90.59375 C-29.1328125 90.3984375 -29.1328125 90.3984375 -26.98828125 90.46875 C-25.73015625 90.51 -24.47203125 90.55125 -23.17578125 90.59375 C-23.17578125 86.96375 -23.17578125 83.33375 -23.17578125 79.59375 C-24.41328125 79.67625 -25.65078125 79.75875 -26.92578125 79.84375 C-30.0843917 79.83813968 -31.00337549 79.7072855 -33.73828125 77.90625 C-35.17578125 75.59375 -35.17578125 75.59375 -35.05078125 72.96875 C-34.17578125 70.59375 -34.17578125 70.59375 -32.17578125 68.59375 C-29.15751472 68.32134327 -26.21207503 68.50699875 -23.17578125 68.59375 C-23.17578125 64.63375 -23.17578125 60.67375 -23.17578125 56.59375 C-25.421875 56.69140625 -27.66796875 56.7890625 -29.9140625 56.88671875 C-32.17578125 56.59375 -32.17578125 56.59375 -33.9765625 55.2734375 C-35.17578125 53.59375 -35.17578125 53.59375 -35.05078125 50.53125 C-34.17578125 47.59375 -34.17578125 47.59375 -31.17578125 45.59375 C-29.1328125 45.3984375 -29.1328125 45.3984375 -26.98828125 45.46875 C-25.73015625 45.51 -24.47203125 45.55125 -23.17578125 45.59375 C-23.17578125 41.96375 -23.17578125 38.33375 -23.17578125 34.59375 C-24.41328125 34.67625 -25.65078125 34.75875 -26.92578125 34.84375 C-30.0843917 34.83813968 -31.00337549 34.7072855 -33.73828125 32.90625 C-35.17578125 30.59375 -35.17578125 30.59375 -35.05078125 27.96875 C-34.17578125 25.59375 -34.17578125 25.59375 -32.17578125 23.59375 C-30.01171875 23.3984375 -30.01171875 23.3984375 -27.55078125 23.46875 C-26.32488281 23.49582031 -26.32488281 23.49582031 -25.07421875 23.5234375 C-24.13449219 23.55824219 -24.13449219 23.55824219 -23.17578125 23.59375 C-23.2221875 22.79710938 -23.26859375 22.00046875 -23.31640625 21.1796875 C-23.60910831 12.58679119 -23.60910831 12.58679119 -21.67578125 8.15625 C-15.05230238 1.36718416 -9.35015358 -0.15341483 0 0 Z " fill="black" transform="translate(69.17578125,33.40625)"/>
 <path d="M0 0 C3.68922049 1.86461687 6.29712171 4.52783716 8.14453125 8.22265625 C9.75966323 13.45260744 9.75820216 18.98237638 7.70532227 24.05395508 C5.28363215 28.24201062 2.2840924 31.36963803 -1.10546875 34.79296875 C-2.12537903 35.83141434 -2.12537903 35.83141434 -3.16589355 36.89083862 C-4.60426133 38.34871882 -6.04678003 39.8025139 -7.49316406 41.25244141 C-9.68210715 43.45543481 -11.84295947 45.68364616 -14.00390625 47.9140625 C-27.28292555 61.40014176 -27.28292555 61.40014176 -37.19921875 63.34765625 C-37.90908936 63.56083496 -38.61895996 63.77401367 -39.3503418 63.99365234 C-44.12864597 65.41093139 -48.28254136 65.91186513 -53.19921875 65.34765625 C-56.26171875 63.34765625 -56.26171875 63.34765625 -58.19921875 60.34765625 C-57.82940394 54.80630424 -56.67013072 49.65354538 -55.07421875 44.34765625 C-54.89890625 43.68765625 -54.72359375 43.02765625 -54.54296875 42.34765625 C-52.75895646 36.4163946 -49.47628757 32.72759129 -45.19921875 28.34765625 C-44.48258057 27.60811707 -44.48258057 27.60811707 -43.75146484 26.8536377 C-40.31527117 23.312411 -36.84453588 19.80720422 -33.35522461 16.31835938 C-31.50019472 14.46111848 -29.65334457 12.59598421 -27.80664062 10.73046875 C-26.62158285 9.54248066 -25.43605282 8.35496342 -24.25 7.16796875 C-23.70201248 6.61279572 -23.15402496 6.05762268 -22.58943176 5.48562622 C-16.04697543 -1.01794639 -9.06734082 -2.68960198 0 0 Z " fill="black" transform="translate(148.19921875,35.65234375)"/>
 <path d="M0 0 C1.875 1.125 1.875 1.125 3 3 C3.5089592 5.98839931 3.61064932 8.06953058 1.90658569 10.66607666 C0.2827621 12.52985036 -1.41509328 14.27263638 -3.17578125 16.0078125 C-3.81557419 16.65571747 -4.45536713 17.30362244 -5.11454773 17.97116089 C-6.47326911 19.33834047 -7.83969052 20.69790445 -9.21313477 22.05029297 C-11.29002577 24.10278974 -13.33016298 26.18726205 -15.36914062 28.27734375 C-28.34748438 41.34239282 -28.34748438 41.34239282 -38 43 C-38.66 43 -39.32 43 -40 43 C-39.31662076 31.09816528 -31.9925974 24.69879632 -23.85864258 16.85009766 C-21.67629817 14.73916472 -19.53734478 12.59036851 -17.40039062 10.43359375 C-16.0232017 9.07311918 -14.64372185 7.71495893 -13.26171875 6.359375 C-12.62401047 5.7189325 -11.98630219 5.07848999 -11.32926941 4.41864014 C-7.61377396 0.87717782 -5.39987614 -0.94840615 0 0 Z " fill="black" transform="translate(143,46)"/>
</svg>
